<svg width="83" height="90" viewBox="0 0 83 90" fill="none" xmlns="http://www.w3.org/2000/svg">
<g style="mix-blend-mode:screen" opacity="0.5" filter="url(#filter0_f_3018_2569)">
<path d="M-12.132 11.9C-26.7059 9.38616 -42.4456 13.0602 -61.6831 11.9C-57.7967 14.8006 -6.8855 17.7011 0.30426 20.9885C23.6224 21.3752 29.8406 22.1487 41.6939 23.5023C35.4758 21.1818 -2.02753 13.8337 -12.132 11.9ZM41.6939 23.5023C29.8406 22.1487 23.6224 21.3752 0.30426 20.9885C3.41336 22.3421 -16.99 28.3366 -14.2696 29.6902C10.0201 29.8836 42.0826 29.3035 53.5473 30.2703C51.6041 29.3035 44.4144 24.4692 41.6939 23.5023ZM53.5473 30.2703C42.0826 29.3035 10.0201 29.8836 -14.2696 29.6902C-10.9662 31.4305 33.5326 36.4582 35.6701 38.1986C61.5143 38.1986 60.7371 39.1654 71.0359 39.5522C69.87 38.1985 55.8791 31.6239 53.5473 30.2703ZM71.0359 39.5522C60.7371 39.1654 61.5143 38.1986 35.6701 38.1986C37.6133 39.7455 14.6838 42.8395 14.1008 44.5798C41.694 44.1931 59.9598 45.3533 69.287 45.1599C69.287 43.8063 72.3961 40.9058 71.0359 39.5522ZM69.287 45.1599C59.9598 45.3533 41.694 44.1931 14.1008 44.5798C13.3236 47.0937 -37.3934 46.9003 -40.1138 49.0274C-33.8957 49.0274 -23.7912 49.6075 -13.4923 49.4141C1.47015 49.2208 22.2622 52.3147 33.7269 53.0882C42.4712 53.4749 48.1064 52.5081 51.9928 53.0882C82.1121 49.2207 69.287 46.7069 69.287 45.1599ZM51.9928 53.0882C48.1064 52.5081 42.4712 53.4749 33.7269 53.0882C22.2622 52.3147 1.47015 49.2208 -13.4923 49.4141C-23.7912 49.6075 -33.8957 49.0274 -40.1138 49.0274C-41.4741 50.1876 -42.057 53.6683 -43.4172 54.8285C-37.782 54.6352 -30.3979 55.2153 -22.0423 54.8285C-10.3832 54.055 10.9917 57.149 22.0678 57.9225C31.2008 58.696 37.4189 57.5357 41.8882 58.5026C43.0542 57.7291 50.8269 53.2816 51.9928 53.0882ZM41.8882 58.5026C37.4189 57.5357 31.2008 58.696 22.0678 57.9225C10.9917 57.149 -10.3832 54.055 -22.0423 54.8285C-30.3979 55.2153 -37.782 54.6352 -43.4172 54.8285C-47.8865 58.3092 -46.9149 61.0164 -53.1331 62.37C-43.0286 61.9833 -41.6684 58.696 -35.0616 60.4363C-31.7582 61.4032 -27.6775 62.5634 -21.4593 61.7899C-15.4355 61.0164 -4.16504 58.3092 6.71677 62.1767C12.352 61.9833 37.8076 61.2098 41.8882 58.5026ZM6.71677 62.1767C-4.16504 58.3092 -15.4355 61.0164 -21.4593 61.7899C-27.6775 62.5634 -31.7582 61.4032 -35.0616 60.4363C-41.6684 58.696 -43.0286 61.9833 -53.1331 62.37C-56.2422 62.9501 -60.1286 66.8176 -77.0342 75.5193C-63.8206 75.7127 -62.849 75.1326 -58.574 79C-52.7445 79 -53.3274 77.6464 -46.1377 76.8729C-38.9479 76.0994 -29.232 75.5193 -23.0139 78.6133C-15.8241 77.2597 -3.58209 62.37 6.71677 62.1767ZM-61.6831 11.9C-69.8444 11.5133 -86.5558 11.7066 -95.3001 11.7066C-94.1342 14.8006 -92.5796 18.0879 -88.6933 21.3752C-75.674 21.3752 -9.80026 20.7951 0.30426 20.9885C-6.8855 17.7011 -57.7967 14.8006 -61.6831 11.9ZM0.30426 20.9885C-9.80026 20.7951 -75.674 21.3752 -88.6933 21.3752C-87.1387 22.9222 -81.5035 28.7233 -80.1433 30.0769C-65.7638 30.0769 -24.957 29.6902 -14.2696 29.6902C-16.99 28.3366 3.41336 22.3421 0.30426 20.9885ZM-14.2696 29.6902C-24.957 29.6902 -65.7638 30.0769 -80.1433 30.0769C-78.2001 32.0107 -34.09 35.6847 -32.9241 37.4251C-16.99 37.2317 24.2054 38.1986 35.6701 38.1986C33.5326 36.4582 -10.9662 31.4305 -14.2696 29.6902ZM35.6701 38.1986C24.2054 38.1986 -16.99 37.2317 -32.9241 37.4251C-31.7582 39.1654 -77.6172 40.7124 -78.0058 42.4527C-60.5172 42.2594 2.24747 44.5798 14.1008 44.5798C14.6838 42.8395 37.6133 39.7455 35.6701 38.1986ZM14.1008 44.5798C2.24747 44.5798 -60.5172 42.2594 -78.0058 42.4527C-78.5887 44.9666 -80.7262 47.0937 -82.8637 49.2207C-68.2899 49.8009 -54.4933 49.2207 -40.1138 49.0274C-37.3934 46.9003 13.3236 47.0937 14.1008 44.5798ZM-40.1138 49.0274C-54.4933 49.2207 -68.2899 49.8009 -82.8637 49.2207C-83.8353 50.1876 -84.8069 51.3478 -85.5842 52.3147C-77.8115 52.8948 -70.4274 54.055 -63.6263 55.0219C-56.2422 54.055 -49.4411 54.8285 -43.4172 54.8285C-42.057 53.6683 -41.4741 50.1876 -40.1138 49.0274ZM-43.4172 54.8285C-49.4411 54.8285 -56.2422 54.055 -63.6263 55.0219C-70.4274 54.055 -77.8115 52.8948 -85.5842 52.3147C-85.7785 52.8948 -87.7217 55.7954 -90.6364 60.0496C-85.1956 61.0164 -77.2285 64.4971 -70.816 63.5303C-64.5979 61.7899 -58.3797 62.37 -53.1331 62.37C-46.9149 61.0164 -47.8865 58.3092 -43.4172 54.8285ZM-53.1331 62.37C-58.3797 62.37 -64.5979 61.7899 -70.816 63.5303C-77.2285 64.4971 -85.1956 61.0164 -90.6364 60.0496C-91.9967 62.37 -98.2148 71.4585 -99.7694 70.685C-96.2717 72.6187 -92.7739 71.0718 -90.6364 73.5856C-85.1956 72.232 -83.8353 75.5193 -77.0342 75.5193C-60.1286 66.8176 -56.2422 62.9501 -53.1331 62.37ZM-95.3001 11.7066C-100.741 11.5133 -107.542 14.0271 -113.177 14.2205C-112.983 17.5078 -123.282 20.7951 -123.282 24.0824C-113.955 24.0824 -96.6603 21.3752 -88.6933 21.3752C-92.5796 18.0879 -94.1342 14.8006 -95.3001 11.7066ZM-88.6933 21.3752C-96.6603 21.3752 -113.955 24.0824 -123.282 24.0824C-123.282 25.6294 -112.4 27.7565 -112.4 29.1101C-102.101 29.1101 -88.8876 30.2703 -80.1433 30.0769C-81.5035 28.7233 -87.1387 22.9222 -88.6933 21.3752ZM-80.1433 30.0769C-88.8876 30.2703 -102.101 29.1101 -112.4 29.1101C-112.4 30.8504 -114.149 35.6847 -114.149 37.4251C-102.296 37.4251 -42.8343 37.4251 -32.9241 37.4251C-34.09 35.6847 -78.2001 32.0107 -80.1433 30.0769ZM-32.9241 37.4251C-42.8343 37.4251 -102.296 37.4251 -114.149 37.4251C-114.149 39.2299 -114.149 40.9702 -114.149 42.6461C-100.935 42.6461 -88.8876 42.4527 -78.0058 42.4527C-77.6172 40.7124 -31.7582 39.1654 -32.9241 37.4251ZM-78.0058 42.4527C-88.8876 42.4527 -100.935 42.6461 -114.149 42.6461C-114.149 44.8377 -114.149 46.9003 -114.149 48.834C-103.073 48.6406 -92.191 48.834 -82.8637 49.2207C-80.7262 47.0937 -78.5887 44.9666 -78.0058 42.4527ZM-82.8637 49.2207C-92.191 48.834 -103.073 48.6406 -114.149 48.834C-114.149 49.7364 -114.149 50.6388 -114.149 51.5412C-103.85 51.3478 -94.3285 51.928 -85.5842 52.3147C-84.8069 51.3478 -83.8353 50.1876 -82.8637 49.2207ZM-85.5842 52.3147C-94.3285 51.928 -103.85 51.3478 -114.149 51.5412C-114.149 54.4418 -114.149 55.4086 -113.955 58.3092C-105.599 58.1159 -97.8262 58.8893 -90.6364 60.0496C-87.7217 55.7954 -85.7785 52.8948 -85.5842 52.3147ZM-90.6364 60.0496C-97.8262 58.8893 -105.599 58.1159 -113.955 58.3092C-113.955 60.0496 -114.149 61.7899 -114.149 60.8231C-114.149 61.7899 -114.149 61.7899 -113.955 67.5911C-108.902 66.2375 -104.433 68.3646 -99.7694 70.685C-98.2148 71.4585 -91.9967 62.37 -90.6364 60.0496ZM-113.177 14.2205C-118.618 14.2205 -121.144 11.7066 -126.391 11.9C-127.557 15.1873 -147.96 21.762 -150.681 25.2427C-142.714 25.0493 -132.026 24.2758 -123.282 24.0824C-123.282 20.7951 -112.983 17.5078 -113.177 14.2205ZM-123.282 24.0824C-132.026 24.2758 -142.714 25.0493 -150.681 25.2427C-151.652 26.5963 -139.41 28.1432 -139.605 29.4968C-130.925 29.3679 -121.857 29.239 -112.4 29.1101C-112.4 27.7565 -123.282 25.6294 -123.282 24.0824ZM-112.4 29.1101C-121.857 29.239 -130.925 29.3679 -139.605 29.4968C-139.799 31.2372 -143.102 35.8781 -144.657 37.6184C-135.135 37.6184 -125.031 37.4251 -114.149 37.4251C-114.149 35.6847 -112.4 30.8504 -112.4 29.1101ZM-114.149 37.4251C-125.031 37.4251 -135.135 37.6184 -144.657 37.6184C-146.017 39.5522 -147.377 41.2925 -147.377 43.0329C-137.273 42.9039 -126.197 42.775 -114.149 42.6461C-114.149 40.9702 -114.149 39.2299 -114.149 37.4251ZM-114.149 42.6461C-126.197 42.775 -137.273 42.9039 -147.377 43.0329C-145.434 45.1599 -142.519 47.287 -139.799 49.4141C-132.026 49.0274 -122.893 48.834 -114.149 48.834C-114.149 46.9003 -114.149 44.8377 -114.149 42.6461ZM-114.149 48.834C-122.893 48.834 -132.026 49.0274 -139.799 49.4141C-138.439 50.381 -137.078 51.3478 -135.912 52.3147C-128.917 51.928 -121.727 51.5412 -114.149 51.5412C-114.149 50.6388 -114.149 49.7364 -114.149 48.834ZM-114.149 51.5412C-121.727 51.5412 -128.917 51.928 -135.912 52.3147C-135.718 52.7014 -133.192 56.7623 -131.443 61.0164C-125.808 60.6297 -120.367 58.3092 -113.955 58.3092C-114.149 55.4086 -114.149 54.4418 -114.149 51.5412ZM-114.149 60.8231C-114.149 61.7899 -113.955 60.0496 -113.955 58.3092C-120.367 58.3092 -125.808 60.6297 -131.443 61.0164C-130.666 63.3369 -131.637 63.1435 -127.751 70.8784C-124.059 69.7182 -117.841 67.2043 -113.955 67.5911C-114.149 61.7899 -114.149 61.7899 -114.149 60.8231ZM-126.391 11.9C-131.249 12.0934 -161.368 16.9277 -166.032 17.121C-167.975 20.215 -179.634 23.889 -184.492 27.3697C-178.079 27.1764 -157.676 25.436 -150.681 25.2427C-147.96 21.762 -127.557 15.1873 -126.391 11.9ZM-150.681 25.2427C-157.676 25.436 -178.079 27.1764 -184.492 27.3697C-186.629 28.7233 -163.117 31.4305 -163.506 32.7841C-156.51 32.5908 -147.377 29.4968 -139.605 29.4968C-139.41 28.1432 -151.652 26.5963 -150.681 25.2427ZM-139.605 29.4968C-147.377 29.4968 -156.51 32.5908 -163.506 32.7841C-164.089 34.3311 -166.42 36.2648 -168.558 38.0052C-161.174 37.8118 -153.012 37.8118 -144.657 37.6184C-143.102 35.8781 -139.799 31.2372 -139.605 29.4968ZM-144.657 37.6184C-153.012 37.8118 -161.174 37.8118 -168.558 38.0052C-170.695 39.7455 -172.639 41.4859 -172.639 43.2262C-164.866 43.0973 -156.445 43.0329 -147.377 43.0329C-147.377 41.2925 -146.017 39.5522 -144.657 37.6184ZM-147.377 43.0329C-156.445 43.0329 -164.866 43.0973 -172.639 43.2262C-169.141 45.1599 -164.672 47.6738 -160.397 49.8009C-154.178 49.8009 -146.794 49.6075 -139.799 49.4141C-142.519 47.287 -145.434 45.1599 -147.377 43.0329ZM-139.799 49.4141C-146.794 49.6075 -154.178 49.8009 -160.397 49.8009C-158.065 50.9611 -158.453 53.0882 -156.51 53.8617C-150.875 53.8617 -142.131 52.5081 -135.912 52.3147C-137.078 51.3478 -138.439 50.381 -139.799 49.4141ZM-135.912 52.3147C-142.131 52.5081 -150.875 53.8617 -156.51 53.8617C-155.539 55.0219 -147.766 53.6683 -144.268 57.7291C-139.799 58.1158 -136.495 61.4032 -131.443 61.0164C-133.192 56.7623 -135.718 52.7014 -135.912 52.3147ZM-131.443 61.0164C-136.495 61.4032 -139.799 58.1158 -144.268 57.7291C-140.576 62.5634 -141.936 62.37 -136.301 70.8784C-132.803 70.685 -131.055 71.8453 -127.751 70.8784C-131.637 63.1435 -130.666 63.3369 -131.443 61.0164ZM-166.032 17.121C-177.108 17.7011 -226.659 19.4415 -236.375 20.4084C-242.787 22.9222 -194.208 27.1764 -199.843 29.8836C-188.378 29.3034 -199.843 27.7565 -184.492 27.3697C-179.634 23.889 -167.975 20.215 -166.032 17.121ZM-184.492 27.3697C-199.843 27.7565 -188.378 29.3034 -199.843 29.8836C-202.175 31.2372 -205.284 32.5908 -206.45 33.751C-194.402 33.3643 -180.217 32.9775 -163.506 32.7841C-163.117 31.4305 -186.629 28.7233 -184.492 27.3697ZM-163.506 32.7841C-180.217 32.9775 -194.402 33.3643 -206.45 33.751C-208.004 35.298 -211.113 37.0383 -212.668 38.5853C-200.62 38.3275 -185.917 38.1341 -168.558 38.0052C-166.42 36.2648 -164.089 34.3311 -163.506 32.7841ZM-168.558 38.0052C-185.917 38.1341 -200.62 38.3275 -212.668 38.5853C-214.223 40.1323 -216.943 42.066 -216.943 43.613C-205.478 43.4196 -190.904 43.4196 -172.639 43.2262C-172.639 41.4859 -170.695 39.7455 -168.558 38.0052ZM-172.639 43.2262C-190.904 43.4196 -205.478 43.4196 -216.943 43.613C-213.057 45.1599 -184.492 46.7069 -180.023 48.4473C-166.226 48.6406 -173.999 49.9942 -160.397 49.8009C-164.672 47.6738 -169.141 45.1599 -172.639 43.2262ZM-160.397 49.8009C-173.999 49.9942 -166.226 48.6406 -180.023 48.4473C-177.496 49.2208 -185.075 51.7346 -182.743 52.5081C-169.141 53.0882 -169.918 54.055 -156.51 53.8617C-158.453 53.0882 -158.065 50.9611 -160.397 49.8009ZM-156.51 53.8617C-169.918 54.055 -169.141 53.0882 -182.743 52.5081C-180.994 54.055 -191.682 57.149 -187.407 60.0496C-181.189 60.4363 -173.61 59.2761 -166.032 58.1159C-158.065 56.9556 -150.875 57.149 -144.268 57.7291C-147.766 53.6683 -155.539 55.0219 -156.51 53.8617ZM-144.268 57.7291C-150.875 57.149 -158.065 56.9556 -166.032 58.1159C-173.61 59.2761 -181.189 60.4363 -187.407 60.0496C-182.354 63.5303 -173.416 65.6574 -167.586 65.8507C-166.679 65.9796 -165.837 66.1086 -165.06 66.2375C-158.259 67.3977 -155.927 69.5248 -147.377 71.8453C-145.628 73.779 -141.936 70.8784 -136.301 70.8784C-141.936 62.37 -140.576 62.5634 -144.268 57.7291ZM-236.375 20.4084C-238.966 20.6662 -241.427 20.9885 -243.759 21.3752C-250.754 23.6957 -202.758 27.5631 -208.393 30.4637C-205.673 30.3348 -202.823 30.1414 -199.843 29.8836C-194.208 27.1764 -242.787 22.9222 -236.375 20.4084ZM-199.843 29.8836C-202.823 30.1414 -205.673 30.3348 -208.393 30.4637C-210.919 31.6239 -214.028 32.9775 -215.388 34.1378C-212.538 34.0088 -209.559 33.8799 -206.45 33.751C-205.284 32.5908 -202.175 31.2372 -199.843 29.8836ZM-206.45 33.751C-209.559 33.8799 -212.538 34.0088 -215.388 34.1378C-216.943 35.6847 -220.052 37.4251 -221.412 38.7787C-218.692 38.7787 -215.777 38.7142 -212.668 38.5853C-211.113 37.0383 -208.004 35.298 -206.45 33.751ZM-212.668 38.5853C-215.777 38.7142 -218.692 38.7787 -221.412 38.7787C-222.967 40.3257 -225.299 42.066 -225.299 43.613C-222.708 43.613 -219.923 43.613 -216.943 43.613C-216.943 42.066 -214.223 40.1323 -212.668 38.5853ZM-216.943 43.613C-219.923 43.613 -222.708 43.613 -225.299 43.613C-221.412 45.3533 -216.943 47.0937 -212.279 48.834C-208.782 48.834 -183.52 48.2539 -180.023 48.4473C-184.492 46.7069 -213.057 45.1599 -216.943 43.613ZM-180.023 48.4473C-183.52 48.2539 -208.782 48.834 -212.279 48.834C-209.818 49.6075 -207.292 50.381 -204.701 51.1545C-201.203 51.1545 -186.241 52.5081 -182.743 52.5081C-185.075 51.7346 -177.496 49.2208 -180.023 48.4473ZM-182.743 52.5081C-186.241 52.5081 -201.203 51.1545 -204.701 51.1545C-202.952 52.8948 -199.26 55.7954 -194.791 58.5026C-191.487 58.5026 -190.71 59.8562 -187.407 60.0496C-191.682 57.149 -180.994 54.055 -182.743 52.5081ZM-187.407 60.0496C-190.71 59.8562 -191.487 58.5026 -194.791 58.5026C-189.739 61.5965 -183.132 64.6905 -176.719 65.0772C-173.74 65.3351 -170.695 65.5929 -167.586 65.8507C-173.416 65.6574 -182.354 63.5303 -187.407 60.0496ZM-243.759 21.3752C-252.309 22.5354 -260.082 23.6957 -267.077 25.0493C-277.181 27.1764 -224.91 30.0769 -231.128 32.3974C-225.299 31.8173 -217.72 31.0438 -208.393 30.4637C-202.758 27.5631 -250.754 23.6957 -243.759 21.3752ZM-208.393 30.4637C-217.72 31.0438 -225.299 31.8173 -231.128 32.3974C-233.849 33.5576 -252.892 33.9444 -254.641 35.1046C-249.2 34.5245 -224.91 34.5245 -215.388 34.1378C-214.028 32.9775 -210.919 31.6239 -208.393 30.4637ZM-215.388 34.1378C-224.91 34.5245 -249.2 34.5245 -254.641 35.1046C-256.972 36.4582 -269.797 40.1323 -270.963 41.4859C-265.911 41.0991 -231.128 39.1654 -221.412 38.7787C-220.052 37.4251 -216.943 35.6847 -215.388 34.1378ZM-221.412 38.7787C-231.128 39.1654 -265.911 41.0991 -270.963 41.4859C-272.129 42.8395 -245.119 42.4527 -245.119 43.8063C-240.65 43.8063 -234.237 43.8063 -225.299 43.613C-225.299 42.066 -222.967 40.3257 -221.412 38.7787ZM-225.299 43.613C-234.237 43.8063 -240.65 43.8063 -245.119 43.8063C-244.99 45.0955 -244.407 46.3846 -243.37 47.6738C-233.46 48.4473 -223.55 48.6406 -212.279 48.834C-216.943 47.0937 -221.412 45.3533 -225.299 43.613ZM-212.279 48.834C-223.55 48.6406 -233.46 48.4473 -243.37 47.6738C-242.852 48.3184 -242.204 48.9629 -241.427 49.6075C-229.379 50.5744 -216.943 51.1545 -204.701 51.1545C-207.292 50.381 -209.818 49.6075 -212.279 48.834ZM-204.701 51.1545C-216.943 51.1545 -229.379 50.5744 -241.427 49.6075C-238.901 51.7346 -234.82 53.6683 -229.379 55.4086C-218.886 56.7623 -206.45 57.9225 -194.791 58.5026C-199.26 55.7954 -202.952 52.8948 -204.701 51.1545ZM-194.791 58.5026C-206.45 57.9225 -218.886 56.7623 -229.379 55.4086C-223.355 57.5357 -215.583 59.4695 -206.45 61.2098C-197.706 62.7568 -187.795 64.1104 -176.719 65.0772C-183.132 64.6905 -189.739 61.5965 -194.791 58.5026Z" fill="url(#paint0_linear_3018_2569)" fill-opacity="0.6" style="mix-blend-mode:screen"/>
</g>
<defs>
<filter id="filter0_f_3018_2569" x="-282" y="0" width="365" height="90" filterUnits="userSpaceOnUse" color-interpolation-filters="sRGB">
<feFlood flood-opacity="0" result="BackgroundImageFix"/>
<feBlend mode="normal" in="SourceGraphic" in2="BackgroundImageFix" result="shape"/>
<feGaussianBlur stdDeviation="5.5" result="effect1_foregroundBlur_3018_2569"/>
</filter>
<linearGradient id="paint0_linear_3018_2569" x1="-17.9752" y1="13.5707" x2="-16.1195" y2="13.5707" gradientUnits="userSpaceOnUse">
<stop stop-color="#D5CCFF"/>
<stop offset="1" stop-color="#D5CCFF"/>
</linearGradient>
</defs>
</svg>
