<svg width="103" height="118" viewBox="0 0 103 118" fill="none" xmlns="http://www.w3.org/2000/svg">
<g style="mix-blend-mode:screen" opacity="0.5" filter="url(#filter0_f_3023_23317)">
<path d="M-26.4717 12.2706C-46.994 8.72164 -69.1581 13.9086 -96.2476 12.2706C-90.775 16.3655 -19.0836 20.4604 -8.95929 25.1014C23.8764 25.6474 32.6327 26.7393 49.3242 28.6503C40.568 25.3744 -12.2429 15.0005 -26.4717 12.2706ZM49.3242 28.6503C32.6327 26.7393 23.8764 25.6474 -8.95929 25.1014C-4.58121 27.0123 -33.3125 35.4752 -29.4816 37.3862C4.72226 37.6592 49.8714 36.8402 66.0156 38.2052C63.2793 36.8402 53.155 30.0153 49.3242 28.6503ZM66.0156 38.2052C49.8714 36.8402 4.72226 37.6592 -29.4816 37.3862C-24.8299 39.8431 37.8316 46.941 40.8416 49.398C77.2345 49.398 76.14 50.7629 90.6424 51.3089C89.0006 49.3979 69.2992 40.1161 66.0156 38.2052ZM90.6424 51.3089C76.14 50.7629 77.2345 49.398 40.8416 49.398C43.5779 51.5819 11.2894 55.9499 10.4685 58.4068C49.3242 57.8608 75.0455 59.4988 88.1797 59.2258C88.1797 57.3148 92.5578 53.2199 90.6424 51.3089ZM88.1797 59.2258C75.0455 59.4988 49.3242 57.8608 10.4685 58.4068C9.37402 61.9558 -62.0437 61.6828 -65.8746 64.6857C-57.1184 64.6857 -42.8896 65.5047 -28.3871 65.2317C-7.31754 64.9587 21.961 69.3266 38.1053 70.4186C50.4186 70.9646 58.354 69.5996 63.8266 70.4186C106.239 64.9587 88.1797 61.4098 88.1797 59.2258ZM63.8266 70.4186C58.354 69.5996 50.4186 70.9646 38.1053 70.4186C21.961 69.3266 -7.31754 64.9587 -28.3871 65.2317C-42.8896 65.5047 -57.1184 64.6857 -65.8746 64.6857C-67.79 66.3237 -68.6109 71.2376 -70.5263 72.8756C-62.591 72.6026 -52.193 73.4216 -40.4269 72.8756C-24.009 71.7836 6.09042 76.1515 21.6874 77.2435C34.548 78.3355 43.3042 76.6975 49.5977 78.0625C51.2395 76.9705 62.1848 70.6916 63.8266 70.4186ZM49.5977 78.0625C43.3042 76.6975 34.548 78.3355 21.6874 77.2435C6.09042 76.1515 -24.009 71.7836 -40.4269 72.8756C-52.193 73.4216 -62.591 72.6026 -70.5263 72.8756C-76.8198 77.7895 -75.4517 81.6114 -84.2079 83.5224C-69.979 82.9764 -68.0636 78.3355 -58.7602 80.7924C-54.1084 82.1574 -48.3622 83.7954 -39.606 82.7034C-31.1234 81.6114 -15.2528 77.7895 0.0705566 83.2494C8.00586 82.9764 43.8515 81.8844 49.5977 78.0625ZM0.0705566 83.2494C-15.2528 77.7895 -31.1234 81.6114 -39.606 82.7034C-48.3622 83.7954 -54.1084 82.1574 -58.7602 80.7924C-68.0636 78.3355 -69.979 82.9764 -84.2079 83.5224C-88.5859 84.3414 -94.0586 89.8013 -117.864 102.086C-99.2576 102.359 -97.8894 101.54 -91.8695 107C-83.6606 107 -84.4815 105.089 -74.3571 103.997C-64.2328 102.905 -50.5512 102.086 -41.795 106.454C-31.6707 104.543 -14.4319 83.5224 0.0705566 83.2494ZM-96.2476 12.2706C-107.74 11.7246 -131.272 11.9976 -143.586 11.9976C-141.944 16.3655 -139.755 21.0064 -134.282 25.6474C-115.949 25.6474 -23.1881 24.8284 -8.95929 25.1014C-19.0836 20.4604 -90.775 16.3655 -96.2476 12.2706ZM-8.95929 25.1014C-23.1881 24.8284 -115.949 25.6474 -134.282 25.6474C-132.093 27.8313 -124.158 36.0212 -122.243 37.9322C-101.994 37.9322 -44.5313 37.3862 -29.4816 37.3862C-33.3125 35.4752 -4.58121 27.0123 -8.95929 25.1014ZM-29.4816 37.3862C-44.5313 37.3862 -101.994 37.9322 -122.243 37.9322C-119.506 40.6621 -57.392 45.849 -55.7502 48.306C-33.3125 48.033 24.6973 49.398 40.8416 49.398C37.8316 46.941 -24.8299 39.8431 -29.4816 37.3862ZM40.8416 49.398C24.6973 49.398 -33.3125 48.033 -55.7502 48.306C-54.1084 50.7629 -118.685 52.9469 -119.233 55.4039C-94.6058 55.1309 -6.22296 58.4068 10.4685 58.4068C11.2894 55.9499 43.5779 51.5819 40.8416 49.398ZM10.4685 58.4068C-6.22296 58.4068 -94.6058 55.1309 -119.233 55.4039C-120.054 58.9528 -123.063 61.9557 -126.073 64.9587C-105.551 65.7777 -86.1233 64.9587 -65.8746 64.6857C-62.0437 61.6828 9.37402 61.9558 10.4685 58.4068ZM-65.8746 64.6857C-86.1233 64.9587 -105.551 65.7777 -126.073 64.9587C-127.442 66.3237 -128.81 67.9617 -129.904 69.3266C-118.959 70.1456 -108.561 71.7836 -98.9839 73.1486C-88.5859 71.7836 -79.0089 72.8756 -70.5263 72.8756C-68.6109 71.2376 -67.79 66.3237 -65.8746 64.6857ZM-70.5263 72.8756C-79.0089 72.8756 -88.5859 71.7836 -98.9839 73.1486C-108.561 71.7836 -118.959 70.1456 -129.904 69.3266C-130.178 70.1456 -132.914 74.2406 -137.019 80.2465C-129.357 81.6114 -118.138 86.5253 -109.108 85.1604C-100.352 82.7034 -91.5959 83.5224 -84.2079 83.5224C-75.4517 81.6114 -76.8198 77.7895 -70.5263 72.8756ZM-84.2079 83.5224C-91.5959 83.5224 -100.352 82.7034 -109.108 85.1604C-118.138 86.5253 -129.357 81.6114 -137.019 80.2465C-138.934 83.5224 -147.69 96.3532 -149.879 95.2612C-144.954 97.9912 -140.029 95.8072 -137.019 99.3561C-129.357 97.4452 -127.442 102.086 -117.864 102.086C-94.0586 89.8013 -88.5859 84.3414 -84.2079 83.5224ZM-143.586 11.9976C-151.247 11.7246 -160.825 15.2735 -168.76 15.5465C-168.486 20.1874 -182.989 24.8284 -182.989 29.4693C-169.854 29.4693 -145.501 25.6474 -134.282 25.6474C-139.755 21.0064 -141.944 16.3655 -143.586 11.9976ZM-134.282 25.6474C-145.501 25.6474 -169.854 29.4693 -182.989 29.4693C-182.989 31.6532 -167.665 34.6562 -167.665 36.5672C-153.163 36.5672 -134.556 38.2052 -122.243 37.9322C-124.158 36.0212 -132.093 27.8313 -134.282 25.6474ZM-122.243 37.9322C-134.556 38.2052 -153.163 36.5672 -167.665 36.5672C-167.665 39.0241 -170.128 45.849 -170.128 48.306C-153.437 48.306 -69.7054 48.306 -55.7502 48.306C-57.392 45.849 -119.506 40.6621 -122.243 37.9322ZM-55.7502 48.306C-69.7054 48.306 -153.437 48.306 -170.128 48.306C-170.128 50.8539 -170.128 53.3109 -170.128 55.6769C-151.521 55.6769 -134.556 55.4039 -119.233 55.4039C-118.685 52.9469 -54.1084 50.7629 -55.7502 48.306ZM-119.233 55.4039C-134.556 55.4039 -151.521 55.6769 -170.128 55.6769C-170.128 58.7708 -170.128 61.6828 -170.128 64.4127C-154.531 64.1397 -139.208 64.4127 -126.073 64.9587C-123.063 61.9557 -120.054 58.9528 -119.233 55.4039ZM-126.073 64.9587C-139.208 64.4127 -154.531 64.1397 -170.128 64.4127C-170.128 65.6867 -170.128 66.9607 -170.128 68.2347C-155.626 67.9617 -142.218 68.7806 -129.904 69.3266C-128.81 67.9617 -127.442 66.3237 -126.073 64.9587ZM-129.904 69.3266C-142.218 68.7806 -155.626 67.9617 -170.128 68.2347C-170.128 72.3296 -170.128 73.6946 -169.854 77.7895C-158.088 77.5165 -147.143 78.6085 -137.019 80.2465C-132.914 74.2406 -130.178 70.1456 -129.904 69.3266ZM-137.019 80.2465C-147.143 78.6085 -158.088 77.5165 -169.854 77.7895C-169.854 80.2465 -170.128 82.7034 -170.128 81.3384C-170.128 82.7034 -170.128 82.7034 -169.854 90.8933C-162.74 88.9823 -156.446 91.9853 -149.879 95.2612C-147.69 96.3532 -138.934 83.5224 -137.019 80.2465ZM-168.76 15.5465C-176.422 15.5465 -179.979 11.9976 -187.367 12.2706C-189.009 16.9115 -217.74 26.1934 -221.571 31.1073C-210.352 30.8343 -195.302 29.7423 -182.989 29.4693C-182.989 24.8284 -168.486 20.1874 -168.76 15.5465ZM-182.989 29.4693C-195.302 29.7423 -210.352 30.8343 -221.571 31.1073C-222.939 33.0182 -205.7 35.2022 -205.974 37.1132C-193.752 36.9312 -180.982 36.7492 -167.665 36.5672C-167.665 34.6562 -182.989 31.6532 -182.989 29.4693ZM-167.665 36.5672C-180.982 36.7492 -193.752 36.9312 -205.974 37.1132C-206.247 39.5701 -210.899 46.122 -213.088 48.579C-199.68 48.579 -185.451 48.306 -170.128 48.306C-170.128 45.849 -167.665 39.0241 -167.665 36.5672ZM-170.128 48.306C-185.451 48.306 -199.68 48.579 -213.088 48.579C-215.004 51.3089 -216.919 53.7659 -216.919 56.2228C-202.69 56.0409 -187.093 55.8589 -170.128 55.6769C-170.128 53.3109 -170.128 50.8539 -170.128 48.306ZM-170.128 55.6769C-187.093 55.8589 -202.69 56.0409 -216.919 56.2228C-214.183 59.2258 -210.078 62.2288 -206.247 65.2317C-195.302 64.6857 -182.441 64.4127 -170.128 64.4127C-170.128 61.6828 -170.128 58.7708 -170.128 55.6769ZM-170.128 64.4127C-182.441 64.4127 -195.302 64.6857 -206.247 65.2317C-204.332 66.5967 -202.417 67.9617 -200.775 69.3266C-190.924 68.7806 -180.8 68.2347 -170.128 68.2347C-170.128 66.9607 -170.128 65.6867 -170.128 64.4127ZM-170.128 68.2347C-180.8 68.2347 -190.924 68.7806 -200.775 69.3266C-200.501 69.8726 -196.944 75.6055 -194.481 81.6114C-186.546 81.0654 -178.884 77.7895 -169.854 77.7895C-170.128 73.6946 -170.128 72.3296 -170.128 68.2347ZM-170.128 81.3384C-170.128 82.7034 -169.854 80.2465 -169.854 77.7895C-178.884 77.7895 -186.546 81.0654 -194.481 81.6114C-193.387 84.8874 -194.755 84.6144 -189.282 95.5342C-184.083 93.8962 -175.327 90.3473 -169.854 90.8933C-170.128 82.7034 -170.128 82.7034 -170.128 81.3384ZM-187.367 12.2706C-194.208 12.5436 -236.62 19.3685 -243.188 19.6415C-245.924 24.0094 -262.342 29.1963 -269.182 34.1102C-260.153 33.8372 -231.421 31.3803 -221.571 31.1073C-217.74 26.1934 -189.009 16.9115 -187.367 12.2706ZM-221.571 31.1073C-231.421 31.3803 -260.153 33.8372 -269.182 34.1102C-272.192 36.0212 -239.083 39.8431 -239.63 41.7541C-229.78 41.4811 -216.919 37.1132 -205.974 37.1132C-205.7 35.2022 -222.939 33.0182 -221.571 31.1073ZM-205.974 37.1132C-216.919 37.1132 -229.78 41.4811 -239.63 41.7541C-240.451 43.938 -243.735 46.668 -246.745 49.125C-236.347 48.852 -224.854 48.852 -213.088 48.579C-210.899 46.122 -206.247 39.5701 -205.974 37.1132ZM-213.088 48.579C-224.854 48.852 -236.347 48.852 -246.745 49.125C-249.755 51.5819 -252.491 54.0389 -252.491 56.4958C-241.546 56.3138 -229.688 56.2228 -216.919 56.2228C-216.919 53.7659 -215.004 51.3089 -213.088 48.579ZM-216.919 56.2228C-229.688 56.2228 -241.546 56.3138 -252.491 56.4958C-247.566 59.2258 -241.272 62.7747 -235.252 65.7777C-226.496 65.7777 -216.098 65.5047 -206.247 65.2317C-210.078 62.2288 -214.183 59.2258 -216.919 56.2228ZM-206.247 65.2317C-216.098 65.5047 -226.496 65.7777 -235.252 65.7777C-231.969 67.4157 -232.516 70.4186 -229.78 71.5106C-221.844 71.5106 -209.531 69.5996 -200.775 69.3266C-202.417 67.9617 -204.332 66.5967 -206.247 65.2317ZM-200.775 69.3266C-209.531 69.5996 -221.844 71.5106 -229.78 71.5106C-228.411 73.1486 -217.466 71.2376 -212.541 76.9705C-206.247 77.5165 -201.596 82.1574 -194.481 81.6114C-196.944 75.6055 -200.501 69.8726 -200.775 69.3266ZM-194.481 81.6114C-201.596 82.1574 -206.247 77.5165 -212.541 76.9705C-207.342 83.7954 -209.257 83.5224 -201.322 95.5342C-196.397 95.2612 -193.934 96.8992 -189.282 95.5342C-194.755 84.6144 -193.387 84.8874 -194.481 81.6114ZM-243.188 19.6415C-258.785 20.4604 -328.56 22.9174 -342.242 24.2824C-351.272 27.8313 -282.864 33.8372 -290.799 37.6591C-274.655 36.8402 -290.799 34.6562 -269.182 34.1102C-262.342 29.1963 -245.924 24.0094 -243.188 19.6415ZM-269.182 34.1102C-290.799 34.6562 -274.655 36.8402 -290.799 37.6591C-294.083 39.5701 -298.461 41.4811 -300.103 43.1191C-283.138 42.5731 -263.163 42.0271 -239.63 41.7541C-239.083 39.8431 -272.192 36.0212 -269.182 34.1102ZM-239.63 41.7541C-263.163 42.0271 -283.138 42.5731 -300.103 43.1191C-302.292 45.303 -306.67 47.76 -308.859 49.9439C-291.894 49.5799 -271.189 49.307 -246.745 49.125C-243.735 46.668 -240.451 43.938 -239.63 41.7541ZM-246.745 49.125C-271.189 49.307 -291.894 49.5799 -308.859 49.9439C-311.048 52.1279 -314.879 54.8579 -314.879 57.0418C-298.735 56.7688 -278.212 56.7688 -252.491 56.4958C-252.491 54.0389 -249.755 51.5819 -246.745 49.125ZM-252.491 56.4958C-278.212 56.7688 -298.735 56.7688 -314.879 57.0418C-309.406 59.2258 -269.183 61.4098 -262.889 63.8667C-243.461 64.1397 -254.406 66.0507 -235.252 65.7777C-241.272 62.7747 -247.566 59.2258 -252.491 56.4958ZM-235.252 65.7777C-254.406 66.0507 -243.461 64.1397 -262.889 63.8667C-259.332 64.9587 -270.003 68.5076 -266.72 69.5996C-247.566 70.4186 -248.66 71.7836 -229.78 71.5106C-232.516 70.4186 -231.969 67.4157 -235.252 65.7777ZM-229.78 71.5106C-248.66 71.7836 -247.566 70.4186 -266.72 69.5996C-264.257 71.7836 -279.307 76.1515 -273.287 80.2465C-264.531 80.7924 -253.859 79.1545 -243.188 77.5165C-231.969 75.8785 -221.844 76.1515 -212.541 76.9705C-217.466 71.2376 -228.411 73.1486 -229.78 71.5106ZM-212.541 76.9705C-221.844 76.1515 -231.969 75.8785 -243.188 77.5165C-253.859 79.1545 -264.531 80.7924 -273.287 80.2465C-266.173 85.1604 -253.586 88.1633 -245.377 88.4363C-244.1 88.6183 -242.914 88.8003 -241.819 88.9823C-232.242 90.6203 -228.959 93.6232 -216.919 96.8992C-214.456 99.6291 -209.257 95.5342 -201.322 95.5342C-209.257 83.5224 -207.342 83.7954 -212.541 76.9705ZM-342.242 24.2824C-345.89 24.6464 -349.356 25.1014 -352.64 25.6474C-362.491 28.9233 -294.904 34.3832 -302.839 38.4781C-299.008 38.2961 -294.995 38.0231 -290.799 37.6591C-282.864 33.8372 -351.272 27.8313 -342.242 24.2824ZM-290.799 37.6591C-294.995 38.0231 -299.008 38.2961 -302.839 38.4781C-306.396 40.1161 -310.774 42.0271 -312.69 43.6651C-308.677 43.4831 -304.481 43.3011 -300.103 43.1191C-298.461 41.4811 -294.083 39.5701 -290.799 37.6591ZM-300.103 43.1191C-304.481 43.3011 -308.677 43.4831 -312.69 43.6651C-314.879 45.849 -319.257 48.306 -321.172 50.217C-317.342 50.217 -313.237 50.1259 -308.859 49.9439C-306.67 47.76 -302.292 45.303 -300.103 43.1191ZM-308.859 49.9439C-313.237 50.1259 -317.342 50.217 -321.172 50.217C-323.361 52.4009 -326.645 54.8579 -326.645 57.0418C-322.997 57.0418 -319.075 57.0418 -314.879 57.0418C-314.879 54.8579 -311.048 52.1279 -308.859 49.9439ZM-314.879 57.0418C-319.075 57.0418 -322.997 57.0418 -326.645 57.0418C-321.172 59.4988 -314.879 61.9558 -308.312 64.4127C-303.386 64.4127 -267.814 63.5937 -262.889 63.8667C-269.183 61.4098 -309.406 59.2258 -314.879 57.0418ZM-262.889 63.8667C-267.814 63.5937 -303.386 64.4127 -308.312 64.4127C-304.846 65.5047 -301.289 66.5967 -297.64 67.6886C-292.715 67.6886 -271.645 69.5996 -266.72 69.5996C-270.003 68.5076 -259.332 64.9587 -262.889 63.8667ZM-266.72 69.5996C-271.645 69.5996 -292.715 67.6886 -297.64 67.6886C-295.177 70.1456 -289.978 74.2405 -283.685 78.0625C-279.033 78.0625 -277.939 79.9735 -273.287 80.2465C-279.307 76.1515 -264.257 71.7836 -266.72 69.5996ZM-273.287 80.2465C-277.939 79.9735 -279.033 78.0625 -283.685 78.0625C-276.571 82.4304 -267.267 86.7983 -258.237 87.3443C-254.042 87.7083 -249.755 88.0723 -245.377 88.4363C-253.586 88.1633 -266.173 85.1604 -273.287 80.2465ZM-352.64 25.6474C-364.68 27.2853 -375.625 28.9233 -385.476 30.8343C-399.705 33.8372 -326.098 37.9321 -334.854 41.2081C-326.645 40.3891 -315.973 39.2971 -302.839 38.4781C-294.904 34.3832 -362.491 28.9233 -352.64 25.6474ZM-302.839 38.4781C-315.973 39.2971 -326.645 40.3891 -334.854 41.2081C-338.685 42.8461 -365.501 43.3921 -367.963 45.03C-360.302 44.211 -326.098 44.211 -312.69 43.6651C-310.774 42.0271 -306.396 40.1161 -302.839 38.4781ZM-312.69 43.6651C-326.098 44.211 -360.302 44.211 -367.963 45.03C-371.247 46.941 -389.307 52.1279 -390.948 54.0389C-383.834 53.4929 -334.854 50.7629 -321.172 50.217C-319.257 48.306 -314.879 45.849 -312.69 43.6651ZM-321.172 50.217C-334.854 50.7629 -383.834 53.4929 -390.948 54.0389C-392.59 55.9498 -354.555 55.4039 -354.555 57.3148C-348.262 57.3148 -339.232 57.3148 -326.645 57.0418C-326.645 54.8579 -323.361 52.4009 -321.172 50.217ZM-326.645 57.0418C-339.232 57.3148 -348.262 57.3148 -354.555 57.3148C-354.373 59.1348 -353.552 60.9548 -352.093 62.7747C-338.138 63.8667 -324.182 64.1397 -308.312 64.4127C-314.879 61.9558 -321.172 59.4988 -326.645 57.0418ZM-308.312 64.4127C-324.182 64.1397 -338.138 63.8667 -352.093 62.7747C-351.363 63.6847 -350.451 64.5947 -349.356 65.5047C-332.391 66.8697 -314.879 67.6886 -297.64 67.6886C-301.289 66.5967 -304.846 65.5047 -308.312 64.4127ZM-297.64 67.6886C-314.879 67.6886 -332.391 66.8697 -349.356 65.5047C-345.799 68.5076 -340.053 71.2376 -332.391 73.6946C-317.615 75.6055 -300.103 77.2435 -283.685 78.0625C-289.978 74.2405 -295.177 70.1456 -297.64 67.6886ZM-283.685 78.0625C-300.103 77.2435 -317.615 75.6055 -332.391 73.6946C-323.909 76.6975 -312.963 79.4275 -300.103 81.8844C-287.789 84.0684 -273.834 85.9794 -258.237 87.3443C-267.267 86.7983 -276.571 82.4304 -283.685 78.0625Z" fill="url(#paint0_linear_3023_23317)" fill-opacity="0.6" style="mix-blend-mode:screen"/>
</g>
<defs>
<filter id="filter0_f_3023_23317" x="-402" y="0" width="505" height="118" filterUnits="userSpaceOnUse" color-interpolation-filters="sRGB">
<feFlood flood-opacity="0" result="BackgroundImageFix"/>
<feBlend mode="normal" in="SourceGraphic" in2="BackgroundImageFix" result="shape"/>
<feGaussianBlur stdDeviation="5.5" result="effect1_foregroundBlur_3023_23317"/>
</filter>
<linearGradient id="paint0_linear_3023_23317" x1="-34.6998" y1="14.6293" x2="-32.0866" y2="14.6293" gradientUnits="userSpaceOnUse">
<stop stop-color="#D5CCFF"/>
<stop offset="1" stop-color="#D5CCFF"/>
</linearGradient>
</defs>
</svg>
