<svg width="102" height="42" viewBox="0 0 102 42" fill="none" xmlns="http://www.w3.org/2000/svg">
	<path d="M20.6346 12.3516L13.5512 15.8231L3.96453 20.5202C1.69051 17.8877 -0.1263 9.78456 1.70448 6.76327C2.25739 5.8517 3.14212 5.40358 4.44758 5.70838C7.73326 6.47609 13.1951 11.499 20.6346 12.3516Z" fill="#F89B29" />
	<g opacity="0.5">
		<path d="M20.6347 12.3516L19.3623 12.9756C12.5187 11.77 7.45785 7.22919 4.34737 6.50272C3.04191 6.19794 2.15721 6.64604 1.60427 7.55764C1.31584 8.03395 1.118 8.63808 0.99707 9.32624C1.08411 8.30573 1.30896 7.41637 1.70457 6.76327C2.25748 5.8517 3.14221 5.40358 4.44767 5.70838C7.73335 6.47609 13.1952 11.499 20.6347 12.3516Z" fill="white" />
	</g>
	<g opacity="0.2">
		<path d="M13.5512 15.8236L3.96453 20.5207C1.69051 17.8882 -0.1263 9.78507 1.70448 6.76377C2.13559 6.56902 2.68486 6.57064 3.3595 7.008C5.08569 8.1257 9.47219 14.4402 13.5512 15.8236Z" fill="#1B0A38" />
	</g>
	<path d="M3.96471 20.981C3.83547 20.981 3.70703 20.9269 3.61597 20.8215C2.4543 19.4764 1.39194 16.8143 0.843452 13.8741C0.247652 10.6801 0.417608 8.00251 1.30966 6.52773C2.01188 5.36665 3.13318 4.92826 4.55217 5.26C5.81077 5.55413 7.33901 6.42147 9.10853 7.42579C12.1986 9.17946 16.0442 11.362 20.6873 11.8945C20.94 11.9234 21.1214 12.1517 21.0924 12.4044C21.0635 12.6571 20.8352 12.8395 20.5825 12.8094C15.7528 12.2556 11.8167 10.0217 8.65398 8.22672C6.94642 7.25762 5.47178 6.42068 4.34254 6.15678C3.32163 5.9179 2.58703 6.19531 2.09765 7.00442C1.33246 8.26932 1.20206 10.7743 1.74878 13.7052C2.26122 16.4522 3.26772 19.0092 4.31301 20.2195C4.47922 20.412 4.45795 20.7027 4.26546 20.869C4.17847 20.9441 4.0713 20.981 3.96471 20.981Z" fill="#1B0A38" />
	<path d="M9.27171 11.347L3.79325 18.6333C3.76339 18.52 3.15068 16.8749 2.725 14.9804C2.53724 14.1482 2.38641 13.2683 2.33693 12.4492C2.21092 10.3566 2.43956 8.89428 2.76692 8.23388C2.85989 8.04714 2.96038 7.9248 3.06296 7.87037C3.87329 7.43975 5.62586 9.15306 9.27171 11.347Z" fill="#FFF3E9" />
	<g opacity="0.2">
		<path d="M9.27229 11.347L3.79383 18.6333C3.76397 18.52 3.15126 16.8749 2.72559 14.9804C3.02405 14.8059 3.37301 14.5232 3.68741 14.0695C4.14571 13.4104 4.9425 11.9174 4.68539 10.5904C4.54968 9.88775 3.67677 8.93802 2.76748 8.23387C2.86045 8.04713 2.96094 7.92479 3.06352 7.87037C3.87388 7.43977 5.62645 9.15308 9.27229 11.347Z" fill="#1B0A38" />
	</g>
	<path d="M3.79405 18.9569C3.77342 18.9569 3.7526 18.9549 3.7319 18.9509C3.61128 18.9272 3.51457 18.8373 3.48226 18.7188C3.47559 18.6964 3.45661 18.6422 3.42828 18.5601C2.58722 16.1215 2.11168 14.0722 2.0148 12.469C1.86055 9.91522 2.22109 7.95273 2.9121 7.5855C3.61173 7.21375 4.5643 7.85986 6.29337 9.0332C7.13243 9.60256 8.17664 10.3111 9.43855 11.0706C9.51693 11.1177 9.57166 11.1959 9.58913 11.2857C9.6066 11.3755 9.58517 11.4685 9.53021 11.5416L4.05227 18.8279C3.99057 18.91 3.89439 18.9569 3.79405 18.9569ZM3.35775 8.1254C3.30227 8.1254 3.25465 8.13534 3.21535 8.15622C3.01332 8.26361 2.48437 9.52416 2.65991 12.43C2.72114 13.4436 2.98935 15.2105 3.90379 17.9502L8.79926 11.4385C7.65909 10.7409 6.70753 10.0953 5.93057 9.56799C4.75795 8.7723 3.80453 8.1254 3.35775 8.1254Z" fill="#1B0A38" />
	<path d="M7.20933 14.4127C7.18185 14.4127 7.15413 14.4092 7.12677 14.402C5.90342 14.0785 5.16584 13.6829 4.8717 13.1925C4.57515 12.6971 4.63597 12.3229 4.73919 12.0961C4.89506 11.7537 5.23323 11.5382 5.57383 11.4033C5.36824 11.2114 5.17332 10.9586 5.12545 10.655C5.09596 10.4677 5.11212 10.1815 5.35675 9.88134C5.65778 9.51143 6.19742 9.38869 6.96013 9.51706C7.0054 9.52464 7.04844 9.54178 7.08657 9.56736C7.62545 9.92882 8.4555 10.4779 9.43823 11.0697C9.51654 11.1169 9.57122 11.195 9.58869 11.2848C9.60612 11.3746 9.58471 11.4676 9.52975 11.5406L7.46762 14.2837C7.40562 14.3662 7.30932 14.4127 7.20933 14.4127ZM6.41598 10.1137C6.14523 10.1137 5.95241 10.1732 5.85776 10.2895C5.75582 10.4145 5.7553 10.5005 5.76382 10.5543C5.79331 10.7416 6.00594 10.9644 6.39572 11.2165C6.48283 11.2729 6.6449 11.3777 6.61104 11.5901C6.59085 11.7165 6.49685 11.82 6.37307 11.8526C6.36808 11.8539 6.35232 11.8576 6.32713 11.8621C5.80904 11.9548 5.42596 12.1471 5.32736 12.3638C5.27044 12.4888 5.30362 12.6559 5.42601 12.8604C5.60407 13.1572 6.20297 13.4666 7.08316 13.7197L8.79877 11.4375C7.97224 10.9314 7.27186 10.4693 6.78563 10.1437C6.65039 10.1236 6.52666 10.1137 6.41598 10.1137Z" fill="#1B0A38" />
	<path d="M33.6155 17.9972L29.2498 15.2483L19.5996 9.17259C22.438 3.35467 27.7626 0.019225 29.7933 0.504601C30.0768 0.571929 30.3644 0.766541 30.6476 1.08573C32.2595 2.89538 33.7523 8.70504 33.6155 17.9972Z" fill="#F89B29" />
	<g opacity="0.5">
		<path d="M31.5493 2.55912C31.3593 2.22269 31.1663 1.9445 30.9707 1.72561C30.6875 1.40642 30.3998 1.21181 30.1164 1.14446C28.1243 0.668269 22.9634 3.86865 20.0895 9.4808L19.5996 9.17259C22.438 3.35467 27.7626 0.0192251 29.7933 0.504601C30.0768 0.571929 30.3644 0.766541 30.6476 1.08573C30.9558 1.43181 31.26 1.92406 31.5493 2.55912Z" fill="white" />
	</g>
	<g opacity="0.2">
		<path d="M33.6158 17.9971L29.2501 15.2481C28.473 13.6337 27.5679 11.1577 27.7594 8.65376C28.0485 4.88714 28.5354 0.896292 30.6479 1.08558C32.2597 2.89521 33.7526 8.70487 33.6158 17.9971Z" fill="#1B0A38" />
	</g>
	<path d="M33.6161 18.4571C33.6138 18.4571 33.6115 18.4571 33.6092 18.4571C33.355 18.4533 33.1518 18.2441 33.1556 17.9898C33.2484 11.7027 32.593 7.69104 32.027 5.43287C31.2551 2.35362 30.2839 1.09458 29.6867 0.951939C27.937 0.534997 22.7699 3.72573 20.0141 9.37372C19.9026 9.60238 19.6268 9.69729 19.3983 9.58564C19.1697 9.47411 19.0749 9.19841 19.1864 8.96989C22.0947 3.00947 27.6057 -0.49218 29.9006 0.0561907C31.0859 0.339231 32.1583 2.16914 32.9203 5.20889C33.4998 7.52047 34.1707 11.6166 34.0764 18.0034C34.0728 18.2554 33.8673 18.4571 33.6161 18.4571Z" fill="#1B0A38" />
	<path d="M27.7574 8.51674C27.813 9.10524 26.8468 9.04701 27.002 9.61928C25.6189 9.1749 24.8281 9.00862 24.7087 7.89594C24.6585 7.42318 24.7635 6.89622 24.9791 6.35745C25.4715 6.04809 26.0661 5.82733 26.6172 6.02338C27.2419 6.24668 27.1807 6.68804 27.0087 6.97511C26.755 7.40039 26.1578 7.67521 26.1578 7.67521C26.1578 7.67521 27.6891 7.80025 27.7574 8.51674Z" fill="#F9D3B7" />
	<path d="M22.1603 8.04903C18.1218 7.6902 13.5706 8.10731 9.84169 9.9516C2.41704 13.6238 1.29112 21.2537 1.21574 28.4453C1.21682 28.4499 -0.347398 31.6589 1.04512 35.1086C2.77504 39.3941 8.55314 41.3288 15.6666 41.3982L23.6811 40.8993C33.36 39.4665 37.8721 34.5502 38.4695 29.1644C38.9334 24.9816 37.2513 18.4146 32.6304 13.2129C32.6304 13.2129 31.1229 11.3417 27.8043 9.89443C24.5903 8.49274 22.1603 8.04903 22.1603 8.04903Z" fill="#FFAD40" />
	<path d="M38.4692 29.1643C37.872 34.5502 33.3601 39.4663 23.6813 40.8991L15.6664 41.3981C8.55316 41.3288 2.77426 39.3947 1.04508 35.109C0.0853243 32.7312 0.53024 30.4678 0.898859 29.2901C1.06481 28.7587 1.21577 28.4471 1.21569 28.4451C1.29046 21.2535 2.41643 13.6237 9.84181 9.952C13.5705 8.10748 18.1215 7.69006 22.1604 8.0491C22.1604 8.0491 24.5903 8.49251 27.8044 9.89431C31.1226 11.3413 32.6298 13.2135 32.6298 13.2135C35.9812 16.985 37.7863 21.4753 38.3493 25.253C38.5618 26.6853 38.5972 28.0149 38.4692 29.1643Z" fill="#F89B29" />
	<path d="M38.4692 29.1649C37.872 34.5508 33.3601 39.4669 23.6813 40.8997C23.6813 40.8997 22.1911 41.383 19.2128 41.498C16.7252 41.5941 15.6664 41.3987 15.6664 41.3987C8.55316 41.3294 2.77426 39.3953 1.04508 35.1096C0.0853243 32.7318 0.53024 30.4684 0.898859 29.2907C5.36571 28.058 6.45527 31.5531 9.79881 30.1214C11.4221 29.4265 11.8836 27.5381 14.7994 27.1562C18.4652 26.676 19.9173 28.9947 23.0545 28.5536C26.5564 28.0617 26.0447 25.606 32.0081 24.8367C34.5401 24.5113 36.946 24.8479 38.3493 25.2536C38.5618 26.6859 38.5972 28.0156 38.4692 29.1649Z" fill="#FFF3E9" />
	<path d="M38.4702 29.1644C38.3298 30.4355 37.9699 31.6807 37.3769 32.8593L37.3759 32.8604C35.4545 36.6781 31.0761 39.8051 23.6821 40.8994C23.6821 40.8994 22.1924 41.3831 19.2132 41.4975C16.7259 41.5943 15.667 41.3987 15.667 41.3987C10.499 41.3477 6.03531 40.3138 3.31819 38.1074C3.29426 38.0897 3.27139 38.0699 3.24954 38.0512C3.22041 38.0262 3.19128 38.0013 3.16217 37.9784C3.15697 37.9732 3.15176 37.969 3.14656 37.9649C2.20825 37.1649 1.49257 36.2152 1.04628 35.1094C0.0861273 32.7314 0.531375 30.4688 0.899617 29.2902C5.36644 28.0575 6.45557 31.5528 9.79999 30.1214C11.4228 29.4265 11.8846 27.5385 14.8004 27.1557C18.4663 26.6761 19.9185 28.9948 23.0548 28.5537C26.5573 28.0617 26.0456 25.6057 32.0093 24.8369C34.5413 24.5113 36.9473 24.8474 38.3506 25.253C38.5628 26.6855 38.5982 28.0159 38.4702 29.1644Z" fill="#FFF3E9" />
	<g opacity="0.2">
		<path d="M37.3751 32.8604C35.4537 36.6781 31.0753 39.805 23.6813 40.8994C23.6813 40.8994 22.1916 41.3831 19.2124 41.4975C16.7251 41.5943 15.6662 41.3987 15.6662 41.3987C10.4982 41.3477 6.03451 40.3138 3.31738 38.1074C6.83133 40.9088 27.8235 41.4663 37.3751 32.8604Z" fill="#1B0A38" />
	</g>
	<path d="M12.3648 31.3716C12.3648 31.3716 12.2144 32.4261 13.1907 32.7318C14.406 33.1124 15.3087 31.9335 15.4842 31.4701C15.5251 31.3623 15.7131 31.3335 15.7693 31.4341C16.0752 31.9821 17.1179 33.0111 18.471 32.3285C19.0028 32.0602 19.4365 31.3273 19.0894 30.6799L15.824 27.7676L12.3648 31.3716Z" fill="#FFF3E9" />
	<g opacity="0.2">
		<path d="M19.1953 31.3771C19.1165 31.7886 18.8135 32.1555 18.4707 32.3279C17.1185 33.0103 16.0755 31.9823 15.7691 31.4331C15.7131 31.3327 15.5257 31.3616 15.4841 31.4702C15.3095 31.9335 14.4061 33.1121 13.1916 32.7316C12.7489 32.5939 12.5378 32.3016 12.4395 32.0235C13.8659 32.158 14.9491 31.133 14.906 30.2373C14.8985 30.0804 16.1406 29.3796 16.1521 29.5364C16.2645 31.0678 17.3436 32.3124 19.1903 31.38C19.1916 31.3796 19.194 31.3775 19.1953 31.3771Z" fill="#1B0A38" />
	</g>
	<path d="M19.2893 30.5722C19.8113 31.2806 19.393 32.3252 18.6595 32.7213C17.9871 33.1093 17.2016 33.1217 16.5194 32.7514C16.0449 32.488 15.6548 32.1314 15.3722 31.6627C15.3849 31.6989 15.4707 31.7841 15.5246 31.8034C15.6901 31.883 15.8582 31.788 15.9162 31.6371C15.884 31.7197 15.8439 31.8054 15.8055 31.8755C15.4294 32.5426 14.8214 33.092 14.0463 33.2289C13.0724 33.4038 12.0393 32.7836 12.0844 31.7125C12.0891 31.5852 12.1046 31.4742 12.141 31.3389C12.2033 31.1079 12.5389 31.1249 12.5807 31.3562C12.6732 32.098 13.1243 32.4654 13.8696 32.3192C14.2997 32.2239 14.7544 31.8197 14.9909 31.4214C15.0162 31.3787 15.0332 31.3439 15.0507 31.3069C15.1025 31.1606 15.2444 31.0235 15.3699 30.9717C15.6737 30.8284 16.0511 30.9442 16.2019 31.2618C16.3683 31.5363 16.649 31.7893 16.9387 31.9339C17.3793 32.1454 17.8788 32.1109 18.3163 31.9194C18.7292 31.7252 19.0321 31.2351 18.8853 30.7676C18.8201 30.5274 19.144 30.3744 19.2893 30.5722Z" fill="#1B0A38" />
	<path d="M12.9579 28.5345C13.0453 29.2022 13.8668 29.6946 14.4854 29.9745C14.9137 30.1683 15.4159 30.1025 15.7799 29.805C16.3056 29.3753 16.9726 28.688 16.8852 28.0203C16.7432 26.9358 12.8159 27.45 12.9579 28.5345Z" fill="#1B0A38" />
	<g opacity="0.35">
		<path d="M13.8588 28.1779C13.8749 28.3014 14.1646 28.3744 14.3848 28.4124C14.5373 28.4386 14.7232 28.4143 14.8638 28.3497C15.0669 28.2563 15.3279 28.1111 15.3118 27.9876C15.2855 27.787 13.8325 27.9773 13.8588 28.1779Z" fill="white" />
	</g>
	<path d="M15.4428 31.7474C15.3391 31.6393 14.8161 31.0013 14.7087 29.0401C14.695 28.7904 14.8864 28.5769 15.136 28.5632C15.3869 28.5495 15.5992 28.7409 15.6129 28.9905C15.7025 30.6255 16.1032 31.1275 16.1073 31.1324C16.1001 31.1238 16.0959 31.12 16.0959 31.12L15.4428 31.7474Z" fill="#1B0A38" />
	<path d="M1.04535 35.1084C1.18486 35.4549 1.34688 35.7898 1.53118 36.1117C2.06711 36.1659 2.63696 36.1574 3.22254 36.0773C5.90976 35.7097 7.89222 33.9706 7.64926 32.1944C7.4063 30.4182 5.02963 29.2754 2.34241 29.643C1.75266 29.7237 1.19607 29.8706 0.690393 30.0687C0.41211 31.3282 0.267446 33.1815 1.04535 35.1084Z" fill="#FF8080" />
	<path d="M31.0803 32.2395C33.7685 31.8719 35.7507 30.1337 35.5078 28.3571C35.2648 26.5805 32.8886 25.4384 30.2004 25.806C27.5122 26.1737 25.53 27.9119 25.7729 29.6884C26.0159 31.465 28.3921 32.6071 31.0803 32.2395Z" fill="#FF8080" />
	<path d="M32.7989 13.0624C36.7041 17.0329 39.1052 22.6894 39.0309 28.2931C38.9056 33.4788 35.2675 37.4584 30.6644 39.3948C28.4615 40.3473 26.0857 40.8817 23.7136 41.1231C23.4369 41.1436 23.361 40.7477 23.6409 40.6766C24.4088 40.51 25.178 40.3602 25.9312 40.1489C27.4313 39.7566 28.9095 39.2637 30.3113 38.6073C37.8272 35.0799 39.468 29.0401 36.9284 21.4739C35.9275 18.547 34.38 15.8244 32.4599 13.3624C32.3828 13.2636 32.4004 13.1211 32.4992 13.044C32.5905 12.9729 32.7191 12.9826 32.7989 13.0624Z" fill="#1B0A38" />
	<path d="M15.6646 41.6113C8.97785 42.0461 -0.656512 39.6754 0.0352747 31.2598C0.127141 30.2336 0.364847 29.2171 0.777644 28.2717C0.796766 28.2297 0.745193 28.3465 0.746488 28.3906C0.745452 19.4478 2.97148 10.5844 13.5611 8.21039C16.401 7.58106 19.325 7.49084 22.1804 7.8235C22.4626 7.87342 22.4433 8.27459 22.1403 8.27454C19.3285 8.11346 16.4727 8.2748 13.7457 8.97641C3.65288 11.6105 1.80235 19.4912 1.67405 28.3372C1.70069 28.4165 1.67419 28.5963 1.63925 28.6515C1.6164 28.6984 1.59686 28.7497 1.5766 28.7955C1.4221 29.171 1.29823 29.5617 1.20024 29.9564C0.866144 31.3126 0.832352 32.7569 1.20191 34.1076C2.19186 37.962 6.29465 39.7071 9.87329 40.4203C10.8216 40.6151 11.7818 40.7655 12.7488 40.8867C13.716 41.0072 14.6896 41.0959 15.6687 41.1851C15.7863 41.1955 15.8731 41.2994 15.8627 41.417C15.8533 41.523 15.7674 41.604 15.6646 41.6113Z" fill="#1B0A38" />
	<path d="M22.1352 19.5112C22.1727 18.7893 19.5859 16.7905 18.297 17.5569C17.0082 18.3233 17.4286 19.8095 18.3177 20.1351C19.609 20.608 22.0977 20.233 22.1352 19.5112Z" fill="#FFF3E9" />
	<path d="M5.6966 21.9791C5.46961 21.2928 7.23713 18.7473 8.59028 19.1763C9.94343 19.6054 9.96759 21.1377 9.26323 21.6645C8.24015 22.4297 5.92359 22.6653 5.6966 21.9791Z" fill="#FFF3E9" />
	<path d="M25.7561 26.4709C25.7538 26.4837 25.7409 26.4661 25.728 26.4524L25.6856 26.4045C25.2377 25.8961 24.7597 25.3858 24.221 24.9798C23.2853 24.2277 21.825 24.1908 21.0523 25.1872C20.6267 25.7207 20.394 26.3942 20.1741 27.0726C20.1124 27.2559 19.9139 27.3544 19.7307 27.2928C19.6096 27.2521 19.5254 27.1509 19.5001 27.0345C19.4097 26.6136 19.3991 26.1725 19.4658 25.7268C19.7255 23.9181 21.3648 22.6778 23.1897 22.9975C24.8057 23.2392 25.9069 24.6846 26.3704 26.1424L26.4015 26.2594C26.5296 26.6881 25.9071 26.8935 25.7561 26.4709Z" fill="#1B0A38" />
	<path d="M5.26514 28.9069C5.25454 28.1657 5.4136 27.3659 5.84198 26.6389C6.51966 25.4843 7.96058 24.649 9.31693 25.0712C10.6072 25.4787 11.4589 26.8157 11.3155 28.1292C11.2743 28.4685 10.806 28.5464 10.6554 28.2452C10.1926 27.3415 9.39973 26.1701 8.25869 26.4856C7.04477 26.8172 6.44473 27.9859 5.92695 29.0598C5.76646 29.3839 5.26601 29.2649 5.26514 28.9069Z" fill="#1B0A38" />
	<path d="M31.5377 10.5742C31.507 11.0188 31.4443 11.4326 31.3432 11.8C27.2871 8.84783 24.9216 9.88664 24.7088 7.89646C24.4794 5.74176 27.4662 2.46223 29.5865 2.11666C29.7182 2.09521 29.8936 2.31636 30.0879 2.71093C30.7938 4.1543 31.7284 7.91344 31.5377 10.5742Z" fill="#FFF3E9" />
	<g opacity="0.2">
		<path d="M31.5377 10.5742C31.507 11.0188 31.4443 11.4326 31.3432 11.8C27.2871 8.84783 24.9216 9.88664 24.7088 7.89646C24.4794 5.74176 27.4662 2.46223 29.5865 2.11666C29.7182 2.09521 29.8936 2.31636 30.0879 2.71093C29.0979 3.20356 27.5356 4.27456 27.6211 6.09766C27.7345 8.49626 30.065 8.87086 31.5377 10.5742Z" fill="#1B0A38" />
	</g>
	<path d="M31.3433 12.1228C31.2759 12.1228 31.2092 12.1017 31.1532 12.061C29.2398 10.6684 27.7196 10.186 26.6096 9.83378C25.3965 9.4488 24.5201 9.1707 24.3878 7.93017C24.2729 6.85302 24.8839 5.42696 26.0222 4.11552C27.1112 2.86095 28.4568 1.97255 29.534 1.79697C29.7081 1.76857 29.8756 1.84192 30.0313 2.01503C30.8854 2.96478 32.4877 8.84735 31.655 11.8851C31.6269 11.9875 31.5504 12.0695 31.4502 12.1046C31.4154 12.1168 31.3793 12.1228 31.3433 12.1228ZM29.5575 2.44935C27.6222 2.83498 24.817 5.8611 25.0303 7.86164C25.1136 8.64263 25.5514 8.82 26.805 9.2178C27.8792 9.55863 29.3234 10.017 31.1331 11.2558C31.6535 8.27069 30.1383 3.03182 29.5575 2.44935Z" fill="#1B0A38" />
	<path d="M28.1431 8.4805C28.1913 8.90535 27.8757 9.22723 27.5578 9.39254C27.4545 9.45243 27.3749 9.50933 27.362 9.52659C27.3576 9.53068 27.3639 9.52762 27.3591 9.52579C27.3652 9.52272 27.3642 9.51382 27.364 9.5097C27.3686 9.50848 27.3634 9.50007 27.3638 9.50377C27.3781 9.50462 27.2935 9.75532 27.2951 9.76359C27.2453 9.93788 27.0581 10.036 26.8865 9.97786C26.3198 9.78773 25.7092 9.642 25.1701 9.31985C24.5303 8.96545 24.258 8.15582 24.3268 7.46116C24.3574 7.01848 24.4758 6.60543 24.6295 6.21802C24.66 6.14056 24.7131 6.08185 24.7786 6.03918C25.2381 5.70426 25.8822 5.44814 26.4922 5.56643C27.375 5.72138 27.8371 6.53772 27.2436 7.26775C26.9648 7.58407 26.6329 7.75916 26.2362 7.84655L26.1729 7.48801C26.8809 7.49161 28.0133 7.59693 28.1431 8.4805ZM27.3711 8.55379C27.3625 8.49465 27.3471 8.44645 27.2949 8.38729C27.128 8.2029 26.8316 8.07875 26.5815 7.99114C26.4391 7.94164 26.2859 7.89631 26.1422 7.86318C26.0031 7.83501 25.9452 7.65366 26.0397 7.54952C26.2636 7.31535 26.5432 7.07211 26.6646 6.84657C26.7283 6.71731 26.7704 6.62391 26.7178 6.54238C26.6341 6.45551 26.4859 6.40158 26.3451 6.37622C25.9391 6.31678 25.5677 6.47927 25.1791 6.67645L25.3282 6.49764C25.0936 7.07889 24.9268 7.86972 25.2581 8.3945C25.4278 8.6485 25.7345 8.78247 26.03 8.90109C26.3711 9.03017 26.7437 9.14099 27.1169 9.2614L26.6386 9.71814C26.5729 9.48667 26.6177 9.21866 26.7781 9.03441C26.9783 8.80299 27.2074 8.74004 27.3593 8.59224C27.3608 8.58612 27.3695 8.58075 27.3696 8.57788C27.3667 8.57507 27.3726 8.57592 27.3706 8.57423C27.3671 8.57173 27.3719 8.57503 27.3708 8.57006C27.3685 8.56443 27.3686 8.55946 27.3711 8.55379Z" fill="#1B0A38" />
	<path d="M46.9722 33.8301V14.1937H53.8245V17.9267H54.029C54.387 16.546 54.9537 15.536 55.7293 14.8968C56.5134 14.2576 57.4296 13.938 58.4779 13.938C58.7847 13.938 59.0873 13.9636 59.3855 14.0147C59.6924 14.0574 59.9864 14.1213 60.2677 14.2065V20.2278C59.9182 20.1085 59.4878 20.019 58.9765 19.9593C58.4651 19.8997 58.0262 19.8699 57.6597 19.8699C56.9694 19.8699 56.3472 20.0275 55.7932 20.3429C55.2478 20.6497 54.8174 21.0843 54.502 21.6468C54.1867 22.2008 54.029 22.8528 54.029 23.6028V33.8301H46.9722ZM65.3391 34.1369C64.0863 34.1369 62.9783 33.9324 62.0152 33.5233C61.0607 33.1056 60.3107 32.475 59.7652 31.6312C59.2198 30.7875 58.9471 29.7136 58.9471 28.4096C58.9471 27.3358 59.1303 26.4196 59.4968 25.661C59.8632 24.894 60.3746 24.2676 61.0309 23.7818C61.6871 23.296 62.4499 22.9252 63.3192 22.6696C64.1971 22.4139 65.1431 22.2477 66.1573 22.171C67.2567 22.0858 68.1388 21.9835 68.8036 21.8642C69.4769 21.7363 69.9627 21.5616 70.261 21.34C70.5593 21.1099 70.7084 20.8074 70.7084 20.4324V20.3812C70.7084 19.8699 70.5124 19.4778 70.1203 19.2051C69.7283 18.9324 69.2255 18.796 68.6118 18.796C67.9385 18.796 67.3888 18.9451 66.9627 19.2434C66.5451 19.5332 66.2936 19.9806 66.2084 20.5858H59.7141C59.7993 19.3926 60.1786 18.2931 60.8519 17.2875C61.5337 16.2733 62.5266 15.4636 63.8306 14.8585C65.1346 14.2449 66.7624 13.938 68.7141 13.938C70.1203 13.938 71.3817 14.1042 72.4982 14.4366C73.6147 14.7605 74.565 15.2164 75.349 15.8045C76.1331 16.3841 76.7297 17.0659 77.1388 17.85C77.5564 18.6255 77.7652 19.4693 77.7652 20.3812V33.8301H71.1686V31.0687H71.0152C70.6232 31.8017 70.1459 32.394 69.5834 32.8457C69.0294 33.2974 68.3945 33.6255 67.6786 33.8301C66.9712 34.0346 66.1914 34.1369 65.3391 34.1369ZM67.6402 29.688C68.1772 29.688 68.68 29.5772 69.1488 29.3556C69.626 29.1341 70.0138 28.8145 70.3121 28.3968C70.6104 27.9792 70.7596 27.4721 70.7596 26.8755V25.2392C70.5721 25.3159 70.3718 25.3883 70.1587 25.4565C69.9542 25.5247 69.7326 25.5886 69.4939 25.6483C69.2638 25.7079 69.0167 25.7633 68.7525 25.8145C68.4968 25.8656 68.2283 25.9125 67.9471 25.9551C67.4016 26.0403 66.9542 26.1809 66.6047 26.377C66.2638 26.5645 66.0081 26.7988 65.8377 27.0801C65.6757 27.3528 65.5948 27.6596 65.5948 28.0005C65.5948 28.546 65.7865 28.9636 66.1701 29.2534C66.5536 29.5431 67.0436 29.688 67.6402 29.688ZM91.0984 14.1937V19.3074H77.9564V14.1937H91.0984ZM80.462 33.8301V13.6312C80.462 12.0119 80.7518 10.6696 81.3314 9.60422C81.9109 8.53888 82.7291 7.74201 83.7859 7.2136C84.8427 6.68519 86.087 6.42099 87.5189 6.42099C88.4137 6.42099 89.2831 6.48917 90.1268 6.62553C90.9791 6.7619 91.6098 6.88121 92.0189 6.98349L90.9961 12.046C90.7405 11.9693 90.4422 11.9096 90.1012 11.867C89.7603 11.8159 89.462 11.7903 89.2064 11.7903C88.5416 11.7903 88.0941 11.9309 87.864 12.2122C87.6339 12.4934 87.5189 12.8642 87.5189 13.3244V33.8301H80.462ZM99.0782 7.64826V33.8301H92.0214V7.64826H99.0782Z" fill="#F5F3FF" />
</svg>
