<svg width="99" height="137" viewBox="0 0 99 137" fill="none" xmlns="http://www.w3.org/2000/svg">
<g style="mix-blend-mode:screen" opacity="0.5" filter="url(#filter0_f_3018_2374)">
<path d="M403.415 18.3632C381.661 14.5555 358.166 20.1206 329.45 18.3632C335.251 22.7568 411.247 27.1503 421.979 32.1296C456.786 32.7154 466.068 33.887 483.762 35.9373C474.48 32.4225 418.498 21.2922 403.415 18.3632ZM483.762 35.9373C466.068 33.887 456.786 32.7154 421.979 32.1296C426.62 34.1799 396.164 43.2598 400.224 45.3101C436.482 45.603 484.342 44.7244 501.455 46.1889C498.555 44.7244 487.823 37.4018 483.762 35.9373ZM501.455 46.1889C484.342 44.7244 436.482 45.603 400.224 45.3101C405.155 47.9463 471.579 55.5617 474.77 58.1978C513.348 58.1978 512.188 59.6623 527.561 60.2481C525.821 58.1978 504.936 48.2392 501.455 46.1889ZM527.561 60.2481C512.188 59.6623 513.348 58.1978 474.77 58.1978C477.671 60.541 443.443 65.2275 442.573 67.8636C483.762 67.2778 511.027 69.0352 524.95 68.7423C524.95 66.6919 529.591 62.2984 527.561 60.2481ZM524.95 68.7423C511.027 69.0352 483.762 67.2778 442.573 67.8636C441.413 71.6713 365.707 71.3784 361.646 74.6003C370.928 74.6003 386.011 75.479 401.385 75.1861C423.719 74.8932 454.756 79.5796 471.869 80.7512C484.922 81.337 493.334 79.8725 499.135 80.7512C544.094 74.8932 524.95 71.0855 524.95 68.7423ZM499.135 80.7512C493.334 79.8725 484.922 81.337 471.869 80.7512C454.756 79.5796 423.719 74.8932 401.385 75.1861C386.011 75.479 370.928 74.6003 361.646 74.6003C359.616 76.3577 358.746 81.6299 356.715 83.3873C365.127 83.0944 376.149 83.9731 388.622 83.3873C406.026 82.2157 437.932 86.9021 454.466 88.0737C468.099 89.2454 477.38 87.488 484.052 88.9525C485.792 87.7809 497.395 81.0441 499.135 80.7512ZM484.052 88.9525C477.38 87.488 468.099 89.2454 454.466 88.0737C437.932 86.9021 406.026 82.2157 388.622 83.3873C376.149 83.9731 365.127 83.0944 356.715 83.3873C350.044 88.6596 351.494 92.7602 342.212 94.8105C357.296 94.2247 359.326 89.2454 369.188 91.8815C374.119 93.346 380.21 95.1034 389.492 93.9318C398.484 92.7602 415.308 88.6596 431.551 94.5176C439.963 94.2247 477.961 93.0531 484.052 88.9525ZM431.551 94.5176C415.308 88.6596 398.484 92.7602 389.492 93.9318C380.21 95.1034 374.119 93.346 369.188 91.8815C359.326 89.2454 357.296 94.2247 342.212 94.8105C337.571 95.6892 331.77 101.547 306.535 114.728C326.259 115.021 327.709 114.142 334.091 120C342.792 120 341.922 117.95 352.655 116.778C363.387 115.606 377.89 114.728 387.172 119.414C397.904 117.364 416.178 94.8105 431.551 94.5176ZM329.45 18.3632C317.267 17.7774 292.322 18.0703 279.269 18.0703C281.01 22.7568 283.33 27.7361 289.131 32.7154C308.565 32.7154 406.896 31.8367 421.979 32.1296C411.247 27.1503 335.251 22.7568 329.45 18.3632ZM421.979 32.1296C406.896 31.8367 308.565 32.7154 289.131 32.7154C291.452 35.0586 299.864 43.8457 301.894 45.896C323.358 45.896 384.271 45.3101 400.224 45.3101C396.164 43.2598 426.62 34.1799 421.979 32.1296ZM400.224 45.3101C384.271 45.3101 323.358 45.896 301.894 45.896C304.795 48.825 370.638 54.3901 372.379 57.0262C396.164 56.7333 457.656 58.1978 474.77 58.1978C471.579 55.5617 405.155 47.9463 400.224 45.3101ZM474.77 58.1978C457.656 58.1978 396.164 56.7333 372.379 57.0262C374.119 59.6623 305.665 62.0055 305.085 64.6416C331.19 64.3487 424.88 67.8636 442.573 67.8636C443.443 65.2275 477.671 60.541 474.77 58.1978ZM442.573 67.8636C424.88 67.8636 331.19 64.3487 305.085 64.6416C304.214 68.4494 301.024 71.6713 297.833 74.8932C319.588 75.7719 340.182 74.8932 361.646 74.6003C365.707 71.3784 441.413 71.6713 442.573 67.8636ZM361.646 74.6003C340.182 74.8932 319.588 75.7719 297.833 74.8932C296.383 76.3577 294.933 78.1151 293.772 79.5796C305.375 80.4583 316.397 82.2157 326.549 83.6802C337.571 82.2157 347.724 83.3873 356.715 83.3873C358.746 81.6299 359.616 76.3577 361.646 74.6003ZM356.715 83.3873C347.724 83.3873 337.571 82.2157 326.549 83.6802C316.397 82.2157 305.375 80.4583 293.772 79.5796C293.482 80.4583 290.582 84.8518 286.231 91.2957C294.352 92.7602 306.245 98.0324 315.817 96.5679C325.099 93.9318 334.381 94.8105 342.212 94.8105C351.494 92.7602 350.044 88.6596 356.715 83.3873ZM342.212 94.8105C334.381 94.8105 325.099 93.9318 315.817 96.5679C306.245 98.0324 294.352 92.7602 286.231 91.2957C284.2 94.8105 274.918 108.577 272.598 107.405C277.819 110.334 283.04 107.991 286.231 111.799C294.352 109.748 296.383 114.728 306.535 114.728C331.77 101.547 337.571 95.6892 342.212 94.8105ZM279.269 18.0703C271.148 17.7774 260.995 21.5851 252.584 21.878C252.874 26.8574 237.501 31.8367 237.501 36.816C251.423 36.816 277.239 32.7154 289.131 32.7154C283.33 27.7361 281.01 22.7568 279.269 18.0703ZM289.131 32.7154C277.239 32.7154 251.423 36.816 237.501 36.816C237.501 39.1592 253.744 42.3811 253.744 44.4315C269.117 44.4315 288.841 46.1889 301.894 45.896C299.864 43.8457 291.452 35.0586 289.131 32.7154ZM301.894 45.896C288.841 46.1889 269.117 44.4315 253.744 44.4315C253.744 47.0676 251.133 54.3901 251.133 57.0262C268.827 57.0262 357.586 57.0262 372.379 57.0262C370.638 54.3901 304.795 48.825 301.894 45.896ZM372.379 57.0262C357.586 57.0262 268.827 57.0262 251.133 57.0262C251.133 59.7599 251.133 62.3961 251.133 64.9346C270.858 64.9346 288.841 64.6416 305.085 64.6416C305.665 62.0055 374.119 59.6623 372.379 57.0262ZM305.085 64.6416C288.841 64.6416 270.858 64.9346 251.133 64.9346C251.133 68.2541 251.133 71.3784 251.133 74.3074C267.667 74.0145 283.91 74.3074 297.833 74.8932C301.024 71.6713 304.214 68.4494 305.085 64.6416ZM297.833 74.8932C283.91 74.3074 267.667 74.0145 251.133 74.3074C251.133 75.6743 251.133 77.0411 251.133 78.408C266.507 78.1151 280.72 78.9938 293.772 79.5796C294.933 78.1151 296.383 76.3577 297.833 74.8932ZM293.772 79.5796C280.72 78.9938 266.507 78.1151 251.133 78.408C251.133 82.8015 251.133 84.266 251.423 88.6596C263.896 88.3667 275.499 89.5383 286.231 91.2957C290.582 84.8518 293.482 80.4583 293.772 79.5796ZM286.231 91.2957C275.499 89.5383 263.896 88.3667 251.423 88.6596C251.423 91.2957 251.133 93.9318 251.133 92.4673C251.133 93.9318 251.133 93.9318 251.423 102.719C258.965 100.669 265.636 103.89 272.598 107.405C274.918 108.577 284.2 94.8105 286.231 91.2957ZM252.584 21.878C244.462 21.878 240.691 18.0703 232.86 18.3632C231.119 23.3426 200.663 33.3012 196.602 38.5734C208.495 38.2805 224.448 37.1089 237.501 36.816C237.501 31.8367 252.874 26.8574 252.584 21.878ZM237.501 36.816C224.448 37.1089 208.495 38.2805 196.602 38.5734C195.152 40.6237 213.426 42.9669 213.136 45.0173C226.092 44.822 239.628 44.6267 253.744 44.4315C253.744 42.3811 237.501 39.1592 237.501 36.816ZM253.744 44.4315C239.628 44.6267 226.092 44.822 213.136 45.0173C212.845 47.6534 207.914 54.683 205.594 57.3191C219.807 57.3191 234.89 57.0262 251.133 57.0262C251.133 54.3901 253.744 47.0676 253.744 44.4315ZM251.133 57.0262C234.89 57.0262 219.807 57.3191 205.594 57.3191C203.564 60.2481 201.533 62.8842 201.533 65.5203C216.616 65.3251 233.15 65.1298 251.133 64.9346C251.133 62.3961 251.133 59.7599 251.133 57.0262ZM251.133 64.9346C233.15 65.1298 216.616 65.3251 201.533 65.5203C204.434 68.7423 208.785 71.9642 212.845 75.1861C224.448 74.6003 238.081 74.3074 251.133 74.3074C251.133 71.3784 251.133 68.2541 251.133 64.9346ZM251.133 74.3074C238.081 74.3074 224.448 74.6003 212.845 75.1861C214.876 76.6506 216.906 78.1151 218.647 79.5796C229.089 78.9938 239.821 78.408 251.133 78.408C251.133 77.0411 251.133 75.6743 251.133 74.3074ZM251.133 78.408C239.821 78.408 229.089 78.9938 218.647 79.5796C218.937 80.1654 222.708 86.3164 225.318 92.7602C233.73 92.1744 241.852 88.6596 251.423 88.6596C251.133 84.266 251.133 82.8015 251.133 78.408ZM251.133 92.4673C251.133 93.9318 251.423 91.2957 251.423 88.6596C241.852 88.6596 233.73 92.1744 225.318 92.7602C226.478 96.275 225.028 95.9821 230.829 107.698C236.34 105.941 245.622 102.133 251.423 102.719C251.133 93.9318 251.133 93.9318 251.133 92.4673ZM232.86 18.3632C225.608 18.6561 180.649 25.9787 173.687 26.2716C170.787 30.958 153.383 36.5231 146.132 41.7953C155.704 41.5024 186.16 38.8663 196.602 38.5734C200.663 33.3012 231.119 23.3426 232.86 18.3632ZM196.602 38.5734C186.16 38.8663 155.704 41.5024 146.132 41.7953C142.941 43.8456 178.038 47.9463 177.458 49.9966C187.9 49.7037 201.533 45.0173 213.136 45.0173C213.426 42.9669 195.152 40.6237 196.602 38.5734ZM213.136 45.0173C201.533 45.0173 187.9 49.7037 177.458 49.9966C176.588 52.3398 173.107 55.2688 169.917 57.9049C180.939 57.612 193.121 57.612 205.594 57.3191C207.914 54.683 212.845 47.6534 213.136 45.0173ZM205.594 57.3191C193.121 57.612 180.939 57.612 169.917 57.9049C166.726 60.541 163.825 63.1771 163.825 65.8132C175.428 65.618 187.997 65.5203 201.533 65.5203C201.533 62.8842 203.564 60.2481 205.594 57.3191ZM201.533 65.5203C187.997 65.5203 175.428 65.618 163.825 65.8132C169.046 68.7423 175.718 72.55 182.099 75.7719C191.381 75.7719 202.403 75.479 212.845 75.1861C208.785 71.9642 204.434 68.7423 201.533 65.5203ZM212.845 75.1861C202.403 75.479 191.381 75.7719 182.099 75.7719C185.58 77.5293 185 80.7512 187.9 81.9228C196.312 81.9228 209.365 79.8725 218.647 79.5796C216.906 78.1151 214.876 76.6506 212.845 75.1861ZM218.647 79.5796C209.365 79.8725 196.312 81.9228 187.9 81.9228C189.351 83.6802 200.953 81.6299 206.174 87.7808C212.845 88.3667 217.776 93.346 225.318 92.7602C222.708 86.3164 218.937 80.1654 218.647 79.5796ZM225.318 92.7602C217.776 93.346 212.845 88.3667 206.174 87.7808C211.685 95.1034 209.655 94.8105 218.067 107.698C223.288 107.405 225.898 109.163 230.829 107.698C225.028 95.9821 226.478 96.275 225.318 92.7602ZM173.687 26.2716C157.154 27.1503 83.1885 29.7864 68.6855 31.2509C59.1135 35.0586 131.629 41.5024 123.217 45.603C140.33 44.7243 123.217 42.3811 146.132 41.7953C153.383 36.5231 170.787 30.958 173.687 26.2716ZM146.132 41.7953C123.217 42.3811 140.33 44.7243 123.217 45.603C119.736 47.6534 115.095 49.7037 113.355 51.4611C131.339 50.8753 152.513 50.2895 177.458 49.9966C178.038 47.9463 142.941 43.8456 146.132 41.7953ZM177.458 49.9966C152.513 50.2895 131.339 50.8753 113.355 51.4611C111.034 53.8043 106.393 56.4404 104.073 58.7836C122.057 58.3931 144.004 58.1002 169.917 57.9049C173.107 55.2688 176.588 52.3398 177.458 49.9966ZM169.917 57.9049C144.004 58.1002 122.057 58.3931 104.073 58.7836C101.752 61.1268 97.6915 64.0559 97.6915 66.3991C114.805 66.1062 136.56 66.1061 163.825 65.8132C163.825 63.1771 166.726 60.541 169.917 57.9049ZM163.825 65.8132C136.56 66.1061 114.805 66.1062 97.6915 66.3991C103.493 68.7423 146.132 71.0855 152.803 73.7216C173.397 74.0145 161.795 76.0648 182.099 75.7719C175.718 72.55 169.046 68.7423 163.825 65.8132ZM182.099 75.7719C161.795 76.0648 173.397 74.0145 152.803 73.7216C156.574 74.8932 145.261 78.7009 148.742 79.8725C169.046 80.7512 167.886 82.2157 187.9 81.9228C185 80.7512 185.58 77.5293 182.099 75.7719ZM187.9 81.9228C167.886 82.2157 169.046 80.7512 148.742 79.8725C151.353 82.2157 135.399 86.9022 141.781 91.2957C151.063 91.8815 162.375 90.1241 173.687 88.3667C185.58 86.6093 196.312 86.9021 206.174 87.7808C200.953 81.6299 189.351 83.6802 187.9 81.9228ZM206.174 87.7808C196.312 86.9021 185.58 86.6093 173.687 88.3667C162.375 90.1241 151.063 91.8815 141.781 91.2957C149.322 96.5679 162.665 99.7898 171.367 100.083C172.72 100.278 173.977 100.473 175.138 100.669C185.29 102.426 188.77 105.648 201.533 109.163C204.144 112.092 209.655 107.698 218.067 107.698C209.655 94.8105 211.685 95.1034 206.174 87.7808ZM68.6855 31.2509C64.818 31.6414 61.1439 32.1296 57.6632 32.7154C47.221 36.2302 118.866 42.0882 110.454 46.4818C114.515 46.2865 118.769 45.9936 123.217 45.603C131.629 41.5024 59.1135 35.0586 68.6855 31.2509ZM123.217 45.603C118.769 45.9936 114.515 46.2865 110.454 46.4818C106.683 48.2392 102.042 50.2895 100.012 52.0469C104.266 51.8516 108.714 51.6563 113.355 51.4611C115.095 49.7037 119.736 47.6534 123.217 45.603ZM113.355 51.4611C108.714 51.6563 104.266 51.8516 100.012 52.0469C97.6915 54.3901 93.0506 57.0262 91.0201 59.0765C95.081 59.0765 99.4319 58.9789 104.073 58.7836C106.393 56.4404 111.034 53.8043 113.355 51.4611ZM104.073 58.7836C99.4319 58.9789 95.081 59.0765 91.0201 59.0765C88.6997 61.4197 85.2189 64.0559 85.2189 66.3991C89.0864 66.3991 93.2439 66.3991 97.6915 66.3991C97.6915 64.0559 101.752 61.1268 104.073 58.7836ZM97.6915 66.3991C93.2439 66.3991 89.0864 66.3991 85.2189 66.3991C91.0201 69.0352 97.6915 71.6713 104.653 74.3074C109.874 74.3074 147.582 73.4287 152.803 73.7216C146.132 71.0855 103.493 68.7423 97.6915 66.3991ZM152.803 73.7216C147.582 73.4287 109.874 74.3074 104.653 74.3074C108.327 75.479 112.098 76.6506 115.965 77.8222C121.186 77.8222 143.521 79.8725 148.742 79.8725C145.261 78.7009 156.574 74.8932 152.803 73.7216ZM148.742 79.8725C143.521 79.8725 121.186 77.8222 115.965 77.8222C118.576 80.4583 124.087 84.8518 130.758 88.9525C135.689 88.9525 136.85 91.0028 141.781 91.2957C135.399 86.9022 151.353 82.2157 148.742 79.8725ZM141.781 91.2957C136.85 91.0028 135.689 88.9525 130.758 88.9525C138.3 93.6389 148.162 98.3253 157.734 98.9111C162.182 99.3016 166.726 99.6922 171.367 100.083C162.665 99.7898 149.322 96.5679 141.781 91.2957ZM57.6632 32.7154C44.9006 34.4728 33.2981 36.2302 22.856 38.2805C7.77283 41.5024 85.7991 45.896 76.5171 49.4108C85.2189 48.5321 96.5313 47.3605 110.454 46.4818C118.866 42.0882 47.221 36.2302 57.6632 32.7154ZM110.454 46.4818C96.5313 47.3605 85.2189 48.5321 76.5171 49.4108C72.4563 51.1682 44.0304 51.754 41.4198 53.5114C49.5415 52.6327 85.7991 52.6327 100.012 52.0469C102.042 50.2895 106.683 48.2392 110.454 46.4818ZM100.012 52.0469C85.7991 52.6327 49.5415 52.6327 41.4198 53.5114C37.9391 55.5617 18.7951 61.1268 17.0548 63.1771C24.5963 62.5913 76.5171 59.6623 91.0201 59.0765C93.0506 57.0262 97.6915 54.3901 100.012 52.0469ZM91.0201 59.0765C76.5171 59.6623 24.5963 62.5913 17.0548 63.1771C15.3144 65.2274 55.6328 64.6416 55.6328 66.692C62.3042 66.692 71.8762 66.692 85.2189 66.3991C85.2189 64.0559 88.6997 61.4197 91.0201 59.0765ZM85.2189 66.3991C71.8762 66.692 62.3042 66.692 55.6328 66.692C55.8261 68.6446 56.6963 70.5973 58.2433 72.55C73.0364 73.7216 87.8295 74.0145 104.653 74.3074C97.6915 71.6713 91.0201 69.0352 85.2189 66.3991ZM104.653 74.3074C87.8295 74.0145 73.0364 73.7216 58.2433 72.55C59.0168 73.5263 59.9837 74.5027 61.1439 75.479C79.1277 76.9435 97.6915 77.8222 115.965 77.8222C112.098 76.6506 108.327 75.479 104.653 74.3074ZM115.965 77.8222C97.6915 77.8222 79.1277 76.9435 61.1439 75.479C64.9147 78.7009 71.006 81.6299 79.1277 84.266C94.7909 86.3164 113.355 88.0738 130.758 88.9525C124.087 84.8518 118.576 80.4583 115.965 77.8222ZM130.758 88.9525C113.355 88.0738 94.7909 86.3164 79.1277 84.266C88.1195 87.488 99.7219 90.417 113.355 93.0531C126.407 95.3963 141.201 97.4466 157.734 98.9111C148.162 98.3253 138.3 93.6389 130.758 88.9525Z" fill="url(#paint0_linear_3018_2374)" fill-opacity="0.6" style="mix-blend-mode:screen"/>
</g>
<defs>
<filter id="filter0_f_3018_2374" x="0" y="0" width="546" height="137" filterUnits="userSpaceOnUse" color-interpolation-filters="sRGB">
<feFlood flood-opacity="0" result="BackgroundImageFix"/>
<feBlend mode="normal" in="SourceGraphic" in2="BackgroundImageFix" result="shape"/>
<feGaussianBlur stdDeviation="8.5" result="effect1_foregroundBlur_3018_2374"/>
</filter>
<linearGradient id="paint0_linear_3018_2374" x1="394.693" y1="20.8939" x2="397.463" y2="20.8939" gradientUnits="userSpaceOnUse">
<stop stop-color="#D5CCFF"/>
<stop offset="1" stop-color="#D5CCFF"/>
</linearGradient>
</defs>
</svg>
